<svg style="position: absolute; width: 0; height: 0; overflow: hidden;" aria-hidden="true" version="1.1" xmlns="http://www.w3.org/2000/svg" xmlns:xlink="http://www.w3.org/1999/xlink">
    <style>
        .default-palette, .palette0 {color: currentColor;
            --color0: #353c3a;
            --color1: #eae9e8;
            --color2: #ebb19f;
            --color3: #97a898;
            --color4: #db8778;
        }
    </style>
    <defs>
        <symbol id="x" viewBox="0 0 24 24" fill="none">
            <path fill="currentColor" d="M16.192 6.3442l-4.243 4.242-4.242-4.242-1.414 1.414 4.242 4.242-4.242 4.242 1.414 1.414 4.242-4.242 4.243 4.242 1.414-1.414-4.242-4.242 4.242-4.242z" />
        </symbol>
        <symbol id="twitter" viewBox="0 0 24 24" fill="none">
            <path fill="currentColor" d="M17.1761 4.2427l2.7601 0-6.0301 6.7774L21 20.2427h-5.5544l-4.3505-5.5934-4.9779 5.5934H3.3554l6.4498-7.2492L3 4.2427l5.6954 0 3.9325 5.1126zM16.2073 18.6181h1.5295L7.8644 5.782l-1.6412 0z" />
        </symbol>
        <symbol id="right-arrow-alt" viewBox="0 0 24 24" fill="none">
            <path
                d="m10 6 6 6-6 6"
                fill="none"
                stroke="currentColor"
                stroke-linecap="round"
                stroke-linejoin="round"
                stroke-width="2"
            />
        </symbol>
        <symbol id="phone" viewBox="0 0 24 24" fill="none">
            <path fill="currentColor" d="M17.7071 12.2932c-0.0928-0.0929-0.203-0.1667-0.3243-0.217S17.1314 12 17.0001 12s-0.2614 0.0259-0.3827 0.0762-0.2315 0.1241-0.3243 0.217l-1.594 1.594c-0.739-0.22-2.118-0.72-2.992-1.594s-1.374-2.253-1.594-2.992l1.594-1.594c0.0929-0.0928 0.1667-0.203 0.217-0.3243 0.0503-0.1213 0.0762-0.2514 0.0762-0.3827s-0.0259-0.2614-0.0762-0.3827S11.8 6.386 11.7071 6.2932l-4-4c-0.0928-0.0929-0.203-0.1667-0.3243-0.217C7.2615 2.0259 7.1314 2 7.0001 2 6.8688 2 6.7387 2.0259 6.6174 2.0762 6.4961 2.1265 6.3859 2.2003 6.2931 2.2932l-2.712 2.712c-0.38 0.38-0.594 0.902-0.586 1.435 0.023 1.424 0.4 6.37 4.298 10.268s8.844 4.274 10.269 4.298h0.028c0.528 0 1.027-0.208 1.405-0.586l2.712-2.712c0.0929-0.0928 0.1667-0.203 0.217-0.3243s0.0762-0.2514 0.0762-0.3827-0.0259-0.2614-0.0762-0.3827-0.1241-0.2315-0.217-0.3243zM17.5801 19.0052c-1.248-0.021-5.518-0.356-8.873-3.712-3.366-3.366-3.692-7.651-3.712-8.874l2.005-2.005 2.586 2.586-1.293 1.293c-0.1176 0.1174-0.204 0.2623-0.2515 0.4216C7.9942 8.874 7.9871 9.0426 8.0211 9.2052c0.024 0.115 0.611 2.842 2.271 4.502 1.66 1.66 4.387 2.247 4.502 2.271 0.1625 0.035 0.3313 0.0285 0.4906-0.0189 0.1594-0.0474 0.3043-0.1341 0.4214-0.2521l1.294-1.293 2.586 2.586z" />
        </symbol>
        <symbol id="menu" viewBox="0 0 24 24" fill="none">
            <path fill="currentColor" d="M4 6h16v2H4zM4 11h16v2H4zM4 16h16v2H4z" />
        </symbol>
        <symbol id="map" viewBox="0 0 24 24" fill="currentColor">
            <path d="M12.0001 14c2.206 0 4-1.794 4-4s-1.794-4-4-4c-2.206 0-4 1.794-4 4 0 2.206 1.794 4 4 4zM12.0001 8c1.103 0 2 0.897 2 2s-0.897 2-2 2-2-0.897-2-2 0.897-2 2-2z" />
            <path d="M11.4201 21.814c0.1692 0.1209 0.372 0.1858 0.58 0.1858s0.4107-0.0649 0.58-0.1858c0.304-0.215 7.449-5.374 7.42-11.814 0-4.411-3.589-8-8-8s-8 3.589-8 7.995c-0.029 6.445 7.116 11.604 7.42 11.819zM12.0001 4c3.309 0 6 2.691 6 6.005 0.021 4.438-4.388 8.423-6 9.73-1.611-1.308-6.021-5.294-6-9.735 0-3.309 2.691-6 6-6z" />
        </symbol>
        <symbol id="logo" viewBox="0 0 74 36" fill="none">
            <g fill="var(--color0, #353c3a)" clip-path="url(#clip0_8340_138)">
                <path d="M31.5942 0.5341c-0.4642 0.3102-0.8028 0.7017-1.1082 1.164-1.125 0.0191-2.1833 0.3411-2.9824 1.171-0.7615 0.7908-1.0212 1.7507-0.9857 2.8258l34e-4 0.0813c0.1416 0.9649 0.5306 1.7554 1.3172 2.3507 0.1862 0.1408 0.6003 0.3458 1.0221 0.5545 0.5438 0.269 1.1002 0.5443 1.1966 0.6965 0.3319 0.4743 1.2185 0.7513 1.768 0.8522 0.8601 0.1578 1.6279 0.0871 2.4557-0.1582 1.1803 1.8298 1.6783 3.7516 1.952 5.8974l-0.0976 0.1816c-0.2462-0.2164-0.4491-0.5497-0.6504-0.8803-0.143-0.2348-0.2851-0.4682-0.4414-0.6576-1.5698-1.9049-3.9553-3.2523-6.4816-3.1101-0.4993 0.028-1.65 0.1443-2.04 0.478-0.0589 0.4626 0.4472 1.1917 0.7349 1.56 1.684 2.1557 4.4222 2.6859 6.97 3.1792 0.234 0.0453 0.4664 0.0903 0.6962 0.1362 0.0169 34e-4 0.0349 68e-4 0.0536 0.0104 0.1952 0.037 0.4735 0.0899 0.5218 0.2787l-0.0264 0.0691c-2.6014-0.4377-5.3176-0.122-7.5105 1.4499-1.8744 1.3437-2.9505 3.4647-3.3138 5.7087-0.4313 2.6635 0.0188 5.6442 1.6221 7.8617 1.2963 1.7929 3.2108 2.9304 5.3903 3.275 2.4087 0.3807 5.0261-0.0669 7.0168-1.5245 1.8891-1.3832 2.9586-3.4976 3.3051-5.7793 0.4169-2.7461 0.0339-5.6655-1.6475-7.9386-0.7262-0.9817-1.5831-1.6495-2.6269-2.2649-0.0226-0.0133-0.0455-0.026-0.068-0.0385-0.1283-0.0712-0.2483-0.1378-0.2835-0.2986 2.3406-0.801 4.6557-1.7655 6.5192-3.442 0.9039-0.8133 2.4795-2.7086 2.5441-3.9078-0.1059-0.1698-0.139-0.2006-0.3342-0.258-0.4044-0.1193-0.9139-0.1354-1.339-0.1445-2.2604-0.0488-4.1686 0.9844-5.573 2.7145-0.0833 0.1025-0.2074 0.2955-0.3458 0.5107-0.2695 0.4193-0.5932 0.9226-0.7741 1.0037-0.0161 72e-4-0.0325 0.0135-0.0489 0.0198-88e-4 34e-4-0.0176 68e-4-0.0263 0.0103 0.151-0.6228 0.3511-1.2405 0.551-1.8577 0.1458-0.4504 0.2917-0.9006 0.4183-1.3523l0.0662-0.0523c1.5954-1.267 2.7377-3.1743 2.9593-5.2142 0.1655-1.5184-0.1935-2.8466-1.1496-4.0419-0.158 0.0822-0.3143 0.1669-0.4649 0.2613-1.3539 0.851-2.0834 2.4955-2.4093 4.0082-0.3275 1.5191-0.4028 3.7128 0.4698 5.0619-0.5491 1.7263-1.0818 3.4577-1.5988 5.1938-0.2117-2.2349-0.8742-4.4777-2.0442-6.3958 0.1899-0.1727 0.3661-0.3599 0.5265-0.56 0.67-0.8253 1.4689-2.4101 1.3581-3.4903-0.1221-0.1569-0.2578-0.8901-0.3733-1.5142-0.0651-0.352-0.1238-0.6693-0.1701-0.829-0.2266-0.7846-0.5326-1.5183-0.8816-2.2554-0.3392-0.5209-0.843-0.9384-1.4624-1.0758-0.7682-0.1705-1.5351 0.0458-2.1789 0.4757zM32.4017 17.7802c1.0851-0.1071 2.0866 6e-4 3.0306 0.5947 1.5235 0.959 2.2613 2.7539 2.6442 4.4398 0.6567 2.896 0.6534 7.602-1.0107 10.1873-0.6774 1.0524-1.5508 1.565-2.748 1.8247-1.1168 0.1201-2.1809 91e-4-3.1382-0.6226-1.5727-1.0379-2.2633-3.0098-2.6272-4.7762-0.6095-2.9587-0.6927-7.2138 1.061-9.8349 0.7019-1.0491 1.5754-1.5633 2.7883-1.8128z" />
                <path fill="var(--color1, #eae9e8)" d="M30.486 1.6982c0.3053-0.4624 0.6438-0.8539 1.1082-1.1641 0.6437-0.4299 1.4107-0.6462 2.1789-0.4757 0.6193 0.1374 1.1231 0.5549 1.4623 1.0758-1.0611 0.3072-1.423 0.7151-2.0382 1.6277-0.1618 0.4444-0.3004 0.9095-0.3396 1.3834 0.7465 0.6579 1.2262 1.3983 1.2924 2.4174 8e-3 0.1217 0.017 0.1444-0.0495 0.2431l-0.2713-0.0803c-0.2417 0.1766-0.3023 0.4775-0.3474 0.7595-0.0804 0.5037-0.0922 1.0469-0.0823 1.5566-0.6228-0.1823-1.1712-0.2455-1.8195-0.2153-0.5334 0.132-1.0368 0.2859-1.5229 0.5516-0.1711-0.2702-1.7925-0.9285-2.2187-1.251-0.7866-0.5953-1.1756-1.3858-1.3172-2.3507l-34e-4-0.0813c-0.0355-1.0751 0.2242-2.035 0.9857-2.8258 0.7991-0.8299 1.8574-1.1519 2.9825-1.171z" />
                <path fill="var(--color4, #db8778)" d="M30.486 1.6982c0.3053-0.4624 0.6438-0.8539 1.1082-1.1641 0.6437-0.4299 1.4107-0.6462 2.1789-0.4757 0.6193 0.1374 1.1231 0.5549 1.4623 1.0758-1.0611 0.3072-1.423 0.7151-2.0382 1.6277-0.1618 0.4444-0.3004 0.9095-0.3396 1.3834l-0.7453-0.3007c-0.2973 79e-4-0.883-0.0518-1.1377 0.0768l-0.3284 0.1597c-0.1267 0.1151-0.2746 0.2886-0.4201 0.3724l-0.2752 0.4752-0.1906 0.0117c-0.8858-0.0159-1.7221 0.0807-2.5328 0.4633-0.2292 0.1082-0.4697 0.3007-0.7063 0.3725l-34e-4-0.0813c-0.0355-1.0751 0.2242-2.035 0.9857-2.8258 0.7991-0.8299 1.8574-1.1519 2.9825-1.171z" />
                <path d="M32.1125 3.8446c0.1357-0.3634 0.25-0.8103 0.5301-1.0875 0.2529-0.1023 0.3037-0.0688 0.5548 47e-4-0.1618 0.4445-0.3004 0.9096-0.3396 1.3834z" />
                <path d="M30.6462 4.0811c-0.2677-0.1841-0.5757-0.3721-0.7924-0.6175-0.1405-0.159-0.2141-0.3321-0.2042-0.5442L29.7904 2.85c0.593 0.13 0.8465 0.615 1.1842 1.0714z" />
                <path d="M29.76 4.9404c-0.1115-0.0138-0.2373-0.0237-0.3455-0.0556-0.1809-0.0534-0.21-0.1283-0.2788-0.2837 0.0772-0.1082 0.0957-0.1381 0.2181-0.1919 0.2961-0.1301 0.5819-0.0642 0.872 0.0443l-0.2752 0.4752z" />
                <path d="M31.2377 2.1802c0.1001 0.0433 0.1983 0.0949 0.2615 0.1877 0.2538 0.3726 0.2113 1.1164 0.1652 1.5481l-0.3527-0.1047c-0.0483-0.0529-0.0857-0.095-0.1155-0.1611-0.2078-0.4608-0.122-1.0113 0.0415-1.47z" />
                <path fill="var(--color2, #ebb19f)" d="M29.7606 4.9404l0.1906-0.0117C29.7189 5.8071 29.5937 6.6956 30.08 7.521c0.347 0.5891 0.91 0.9857 1.5003 1.3053-0.5335 0.132-1.0368 0.2859-1.5229 0.5516-0.1711-0.2702-1.7925-0.9285-2.2187-1.251-0.7866-0.5953-1.1756-1.3858-1.3172-2.3507 0.2365-0.0718 0.4771-0.2643 0.7062-0.3725 0.8108-0.3826 1.6471-0.4792 2.5329-0.4633z" />
                <path fill="var(--color3, #97a898)" d="M37.9781 14.1721c0.0248-0.01 0.0505-0.019 0.0753-0.0301 0.2737-0.1227 0.8742-1.2122 1.1198-1.5144 1.4045-1.7301 3.3125-2.7634 5.573-2.7145 0.4251 91e-4 0.9346 0.0252 1.339 0.1445 0.1952 0.0574 0.2283 0.0882 0.3342 0.258-0.0645 1.1992-1.6401 3.0945-2.5441 3.9077-1.8635 1.6766-4.1785 2.6411-6.5192 3.4421 1.2158-1.5397 2.6384-3.0505 4.1603-4.2882 0.5293-0.4306 2.765-1.7989 2.9271-2.0803-0.072-0.0469-0.0819-0.0768-0.1712-0.0638-2.0215 0.294-5.9154 4.4469-7.1246 6.0171 0.153-1.0691 0.416-2.0788 0.8304-3.0781z" />
                <path fill="var(--color3, #97a898)" d="M35.4722 17.2145l0.0264-0.0691c-0.0529-0.2069-0.3821-0.2505-0.5755-0.2891-2.7322-0.5459-5.8275-0.9617-7.6661-3.3154-0.2877-0.3683-0.7938-1.0974-0.7349-1.56 0.39-0.3337 1.5407-0.45 2.04-0.478 2.5263-0.1422 4.9118 1.2052 6.4816 3.1101 0.3764 0.4561 0.6708 1.1678 1.0918 1.5379l0.0976-0.1816c0.043 0.2555 0.0604 0.4565 0.0232 0.716-0.3036-0.0973-0.7833-0.7206-1.0686-0.9465-1.6102-1.2764-4.4346-3.0124-6.5657-2.9512l-0.055 0.0752c0.5308 0.4134 1.4278 0.5776 2.0609 0.7972 1.91 0.6626 4.0397 1.919 5.257 3.5713l-0.0653 0.0735c-0.1059-0.0241-0.2548-0.0379-0.3474-0.0903z" />
                <path fill="var(--color3, #97a898)" d="M40.8228 1.6537c0.9561 1.1952 1.3151 2.5235 1.1497 4.0419-0.2217 2.0399-1.3639 3.9472-2.9594 5.2142L38.947 10.962c0.3689-1.82 0.6426-3.7386 1.1835-5.5112 0.1183-0.3856 0.3813-1.0818 0.1861-1.4489l-0.1364 0.0546c-0.8329 1.3182-1.2547 5.2003-1.7617 6.9286-0.8726-1.3491-0.7974-3.5428-0.4698-5.0619 0.3258-1.5127 1.0553-3.1572 2.4093-4.0082 0.1505-0.0944 0.3068-0.1791 0.4648-0.2613z" />
                <path fill="var(--color2, #ebb19f)" d="M33.197 2.7619c0.6153-0.9126 0.9771-1.3205 2.0382-1.6277 0.3491 0.7371 0.6551 1.4708 0.8817 2.2554 0.1282 0.4427 0.3523 2.0978 0.5434 2.3432-0.6782 0.137-1.1488 0.5019-1.526 1.076-0.2099 0.3199-0.3742 0.6844-0.5261 1.0354-0.168-0.3108-0.4398-0.6943-0.5078-1.0384 0.0665-0.0987 0.0575-0.1214 0.0495-0.2431-0.0662-1.0191-0.5459-1.7595-1.2925-2.4174 0.0392-0.4739 0.1778-0.9389 0.3396-1.3834z" />
                <path d="M65.5523 17.0709c-0.6475-0.0193-1.2927 0.0163-1.9378 0.0702-1.5673 0.3161-3.4498 0.8505-4.3878 2.2604-0.4681 0.7037-0.6765 1.5728-0.5103 2.4079 0.1225 0.6135 0.4508 1.1743 0.9818 1.5189 0.4913 0.3187 1.1968 0.4643 1.7716 0.3354 0.4772-0.1069 0.8834-0.4165 1.1406-0.8289 0.292-0.4682 0.3772-1.0622 0.2515-1.5975-0.0778-0.3302-0.3035-0.5901-0.5228-0.8428-0.3644-0.4196-0.7112-0.8191-0.3333-1.4872 0.3077-0.5431 1.0372-0.8667 1.6162-1.0004 0.8948-0.2066 1.9642-0.1434 2.755 0.3583 0.7733 0.4909 1.205 1.2973 1.3961 2.1748 0.2357 1.0886 0.2912 2.6765-0.3432 3.627-0.5755 0.8625-2.0397 1.2012-3.6845 1.5817-2.3573 0.5453-5.086 1.1765-6.1017 3.5587-0.3907 0.9155-0.2738 1.8555-0.1857 2.563 0.0489 0.3934 0.0889 0.7149 0.0278 0.9205 0.0107 0.0141 0.0215 0.0281 0.0322 0.0423 0.1272 0.1713 0.2301 0.3561 0.3331 0.5411 0.0751 0.135 0.1503 0.27 0.2351 0.4001 0.7063 1.0858 1.6592 1.5577 2.9188 1.7518 1.9007 0.2928 4.0081-0.1244 5.5672-1.2794 0.3721-0.2757 1.0603-0.8955 1.1339-1.3738 64e-4 84e-4 0.0127 0.0167 0.0187 0.0251l78e-4 0.0112c0.2279 0.3415 0.3091 0.6833 0.3856 1.0047 0.1607 0.6758 0.3 1.2618 1.7367 1.5673 1.0777 0.2292 2.7467 0.113 3.7029-0.5227 0.196-0.1299 0.3978-0.3322 0.4359-0.5727 5e-3-0.0316 63e-4-0.0551 62e-4-0.0802-1e-4-0.0199-9e-4-0.0408-13e-4-0.0677-0.0161-0.0152-0.0298-0.0286-0.0418-0.0404-0.071-0.0696-0.0843-0.0826-0.2138-0.0793-0.1895 49e-4-0.3838 0.0396-0.5779 0.0743-0.4936 0.0882-0.9863 0.1762-1.3988-0.2266-0.6119-0.5977-0.6002-1.9811-0.5927-2.8685 5e-4-0.0686 11e-4-0.1342 13e-4-0.1963 0.0149-1.9189 0.019-3.8379 0.0133-5.7569-75e-4-4.3384-0.1464-7.8102-5.6359-7.9734zM67.515 25.081l0.2365-73e-4 0.0712 0.0991c0.0681 0.5519 0.0486 1.1068 0.0291 1.6617-89e-4 0.254-0.0179 0.5081-0.0184 0.7618-7e-4 0.3347 0.0106 0.6754 0.022 1.0184 0.0274 0.8201 0.0551 1.6533-0.0807 2.4445-0.0761 0.4471-0.2399 0.8749-0.4805 1.2594-0.5293 0.8437-1.4036 1.3684-2.3655 1.5737-1.1389 0.2431-2.033-86e-4-2.9907-0.6228-0.0583-0.1035-0.1146-0.2023-0.1688-0.2974-0.5602-0.9826-0.8947-1.5692-0.7815-2.8808 0.213-2.477 2.6746-3.3974 4.6953-4.1529l0.1555-0.0582 0.1084-0.0407c0.0758-0.0285 0.1599-0.0585 0.2486-0.0903l13e-4-4e-4c0.4241-0.1516 0.9584-0.3425 1.2488-0.6027 96e-4-85e-4 0.019-0.0171 0.0282-0.0259 0.0138-0.013 0.0273-0.0262 0.0412-0.0392z" />
                <path fill="var(--color1, #eae9e8)" d="M65.869 25.8687c-0.0248 94e-4-0.0498 0.0187-0.0748 0.0281l0.0442-0.0166z" />
                <path d="M8.9355 7.2888c0.4008-0.044 0.8359-0.0291 1.2379 0.0105 1.5491 0.1402 2.9777 0.8946 3.967 2.0949 0.6605 0.8155 1.0452 1.8043 0.9247 2.8616-0.0704 0.6187-0.3016 1.2168-0.8037 1.6109-0.5365 0.4212-1.3052 0.6301-1.9815 0.5466-0.5695-0.0703-1.0666-0.3715-1.4139-0.8263-0.3092-0.4049-0.4438-1.0077-0.3682-1.5092 0.166-1.1015 1.3197-1.2028 2.052-1.7578 0.1967-0.1491 0.2793-0.3003 0.3148-0.5419-0.0448-0.2822-0.1597-0.4663-0.3496-0.6708-0.7045-0.759-1.777-1.1091-2.7925-1.1345-0.8747-0.022-1.7407 0.2112-2.3756 0.8386-1.5163 1.498-1.1004 6.2254-1.0959 8.2762 1.0152 95e-4 6.8275-0.1701 7.3513 0.2155 0.0514 0.1707 0.0289 0.2696-0.015 0.4403-0.3978 0.272-6.3243 0.1279-7.3421 0.1426l84e-4 5.8656c0.523 11e-4 1.0485 78e-4 1.571-0.0141 3.6797-0.1537 2.5781-2.8099 3.4625-3.6896 0.0926-0.0921 0.1408-0.0669 0.2687-0.0669 0.2561 0.3397 0.1405 6.6902 0.1403 7.6433 29e-4 0.2237-0.0132 0.4427-0.0316 0.6653l-0.158 0.129c-0.2047 24e-4-0.255 0.0342-0.415-0.1025-0.1251-1.0303-0.4205-2.3373-1.1895-3.0763-0.9535-0.9163-2.4326-0.7242-3.6485-0.7087-71e-4 1.7504-0.3941 8.1282 0.7277 9.3443 0.6139 0.6655 1.739 0.5776 2.1714 1.1193l-0.0192 0.1185c-0.2403 0.1332-0.5355 0.1406-0.8048 0.1518-0.7733 0.032-7.7195 0.015-8.1011-0.1009-0.0765-0.0232-0.047-0.0276-0.1261-0.0175-0.015 19e-4-0.0294 65e-4-0.0441 97e-4L0.0186 35.065c0.1046-0.3916 1.6949-0.7012 2.1497-1.1759 0.9969-1.0407 0.6359-7.5504 0.626-9.3448-0.7004-0.0112-2.1017 0.2335-2.6276-0.1984-0.0978-0.191-0.1249-0.2265-0.1029-0.4366 0.3886-0.3474 2.1709-0.1814 2.7238-0.1831 89e-4-1.9561 75e-4-3.9122-4e-3-5.8684-0.8509 0.0159-1.9913 0.1658-2.7632-0.2415L0 17.3726c0.5306-0.4429 2.0985-0.2802 2.7887-0.2747-0.0309-2.5404 59e-4-5.5657 1.6908-7.6465 1.1153-1.3772 2.7476-1.9844 4.456-2.1626z" />
                <path d="M21.2537 6.0019l0.0954 0.0188c0.1299 0.152 0.1302 0.2335 0.1402 0.4272 0.1086 2.1049-82e-4 4.2777-91e-4 6.3901l-35e-4 13.3642c-3e-4 1.6043-0.2305 5.92 0.2795 7.1792 0.5662 1.3979 1.8888 0.9565 2.3152 1.6133l-0.0667 0.1749c-0.3862 0.1503-7.0235 0.0692-8.0943 0.1021-0.0848-1e-4-0.0681 91e-4-0.1313-0.0159-0.1624-0.0645-0.1581-0.1286-0.2261-0.2785 0.1606-0.5514 1.3405-0.3289 1.8217-0.8643 0.4171-0.464 0.5797-1.0809 0.6559-1.6844 0.1582-1.2507 0.1097-2.5359 0.1092-3.7945l-48e-4-5.3001-37e-4-7.5894c2e-3-1.6849 0.0445-3.3798-0.0366-5.0628-0.0891-1.8509-0.0262-2.1962-1.8559-2.7624-0.1849-0.0572-0.4475-0.1189-0.5846-0.2634-0.0863-0.091-0.0605-0.1219-0.0626-0.2393l0.0769 98e-4c0.1448-0.168 0.8092-0.2042 1.0414-0.2337 1.5892-0.2023 3.1039-0.4585 4.5438-1.1909z" />
                <path d="M48.2397 16.97l0.249 0.0314c0.0198 0.031 0.0521 0.0759 0.0661 0.1127 0.1853 0.4832 0.0836 3.719-0.1034 4.1594 0.2672-0.2324 0.3821-0.5605 0.541-0.8691 0.5615-1.0909 1.2555-2.0481 2.3762-2.6207 1.1645-0.5951 2.6756-0.9051 3.9386-0.48 0.7014 0.2359 1.2679 0.72 1.5897 1.3888 0.3349 0.6977 0.4011 1.5189 0.1315 2.2495-0.22 0.5944-0.6617 1.1246-1.244 1.3905-0.5516 0.2518-1.1637 0.2302-1.722 73e-4-0.5641-0.2255-1.0421-0.6284-1.272-1.2002-0.4434-1.0996 0.153-1.4972 0.4962-2.4013 0.067-0.175 0.0546-0.229-0.0223-0.393-0.2357-0.1135-0.483-0.065-0.727-64e-4-3.1066 0.7449-3.8353 4.4164-3.8981 7.1562-0.0157 0.6749 91e-4 3.0405 91e-4 3.0405s-0.0257 2.2738 0 2.927c0.062 1.587 0.1712 2.6631 1.8684 3.1723 0.2481 0.0744 0.5641 0.1207 0.7535 0.3069 0.0504 0.0493 0.0256 0.1391 0.0248 0.2067-0.0191 0.0145-0.0381 0.0299-0.0571 0.0435-0.105 0.0723-8.0095 0.0997-8.4479-0.0101l-0.0529-0.1821c0.1827-0.6899 1.5111-0.3445 2.023-0.9962 0.2548-0.3243 0.3532-0.7472 0.4111-1.147 0.3118-2.1457 0.1613-4.4643 0.1563-6.6365-41e-4-1.7996 0.1108-3.7166-0.134-5.4946-0.3399-2.4741-1.2406-1.3125-2.2637-2.0918-0.0894-0.1953-0.0753-0.2161-0.0265-0.4284 1.7427-0.3299 3.6772-0.3447 5.2793-1.2041z" />
            </g>
            <defs>
                <clipPath id="clip0_8340_138">
                    <rect fill="#fff" width="74" height="35.6389" />
                </clipPath>
            </defs>
        </symbol>
        <symbol id="left-arrow-alt" viewBox="0 0 24 24" fill="none">
            <path
                d="m14 6-6 6 6 6"
                fill="none"
                stroke="currentColor"
                stroke-linecap="round"
                stroke-linejoin="round"
                stroke-width="2"
            />
        </symbol>
        <symbol id="instagram" viewBox="0 0 24 24" fill="currentColor">
            <path d="M11.9988 4.6209c2.4044 0 2.689 0.0107 3.6344 0.0529 0.8791 0.0388 1.3532 0.1861 1.6698 0.3093 0.4185 0.162 0.7205 0.3588 1.0332 0.6715 0.3166 0.3167 0.5096 0.6153 0.6749 1.0338 0.1232 0.3166 0.2705 0.7941 0.3093 1.6698 0.0422 0.9494 0.0529 1.234 0.0529 3.635 0 2.401-0.0107 2.6889-0.0529 3.6349-0.0388 0.8791-0.1861 1.3532-0.3093 1.6699-0.162 0.4184-0.3583 0.7204-0.6715 1.0331-0.3167 0.3167-0.6153 0.5096-1.0332 0.675-0.3166 0.1231-0.7947 0.2705-1.6698 0.3093-0.9494 0.0422-1.234 0.0529-3.635 0.0529-2.401 0-2.6889-0.0107-3.6349-0.0529-0.8791-0.0388-1.3532-0.1862-1.6699-0.3093-0.4184-0.162-0.7205-0.3583-1.0337-0.6716-0.3167-0.3166-0.5096-0.6153-0.6749-1.0332-0.1232-0.3166-0.2706-0.7947-0.3094-1.6698-0.0421-0.9494-0.0528-1.234-0.0528-3.635 0-2.4009 0.0107-2.6889 0.0528-3.6349 0.0388-0.8791 0.1862-1.3532 0.3094-1.6698C5.1502 6.2733 5.347 5.9713 5.6597 5.658 5.9764 5.3414 6.275 5.1485 6.6934 4.9831 7.0101 4.8599 7.4876 4.7126 8.3633 4.6738c0.9454-0.0422 1.2306-0.0529 3.6349-0.0529zM11.9988 3.0006c-2.4432 0-2.7486 0.0107-3.7086 0.0528-0.9561 0.0422-1.6136 0.1969-2.1828 0.4185-0.5939 0.2317-1.0967 0.5377-1.5956 1.0405C4.009 5.0118 3.703 5.514 3.4713 6.1046 3.2497 6.6777 3.0951 7.3312 3.0529 8.2874 3.0107 9.2508 3 9.5562 3 11.9994c0 2.4431 0.0107 2.7485 0.0529 3.7086 0.0421 0.9561 0.1968 1.6136 0.4184 2.1828 0.2323 0.5939 0.5377 1.0967 1.0405 1.5956 0.4989 0.4988 1.0017 0.8087 1.5922 1.0371 0.5731 0.2216 1.2267 0.3762 2.1828 0.4184 0.9595 0.0422 1.2655 0.0529 3.7086 0.0529 2.4432 0 2.7492-0.0107 3.7087-0.0529 0.9561-0.0422 1.6136-0.1968 2.1827-0.4184 0.5906-0.2284 1.0934-0.5377 1.5923-1.0371 0.4988-0.4995 0.8087-1.0017 1.0371-1.5923 0.2216-0.5731 0.3762-1.2266 0.4184-2.1827 0.0422-0.9595 0.0529-1.2655 0.0529-3.7087 0-2.4431-0.0107-2.7485-0.0529-3.7086-0.0422-0.9561-0.1968-1.6136-0.4184-2.1828-0.2216-0.5978-0.5276-1.1001-1.0298-1.5995-0.4989-0.4989-1.0017-0.8088-1.5923-1.0371-0.5731-0.2216-1.2266-0.3763-2.1827-0.4185C14.7485 3.0107 14.4425 3 11.9994 3z" />
            <path d="M11.9985 7.377C9.4468 7.377 7.376 9.4472 7.376 11.9995c0 2.5523 2.0703 4.6226 4.6225 4.6226 2.5523 0 4.6226-2.0703 4.6226-4.6226 0-2.5517-2.0703-4.6226-4.6226-4.6226zM11.9985 14.9978c-1.6557 0-2.9982-1.3425-2.9982-2.9983 0-1.6558 1.3425-2.9983 2.9982-2.9983 1.6558 0 2.9983 1.3425 2.9983 2.9983s-1.3425 2.9983-2.9983 2.9983z" />
            <path d="M17.8822 7.194c0 0.5962-0.4831 1.0793-1.0793 1.0793-0.5961 0-1.0793-0.4831-1.0793-1.0793 0-0.5961 0.4832-1.0793 1.0793-1.0793 0.5962 0 1.0793 0.4832 1.0793 1.0793z" />
        </symbol>
        <symbol id="flower" viewBox="0 0 96 85" fill="var(--color0, #353c3a)">
            <path d="M19.1547 8.1709c1.4726-2.2246 3.1055-4.1086 5.3446-5.6009 3.105-2.0687 6.8037-3.1094 10.5089-2.2892 2.9869 0.6614 5.4167 2.6704 7.0526 5.1768 1.6834 3.5463 3.1593 7.0767 4.2521 10.8522 0.2232 0.7681 0.5063 2.2949 0.8204 3.9886 0.557 3.0025 1.2116 6.5311 1.8004 7.2859 0.5346 5.1974-3.3189 12.8229-6.55 16.7943-0.7738 0.9626-1.6234 1.8636-2.5393 2.6946 5.643 9.2293 8.8382 20.0206 9.8592 30.7741 2.4931-8.3534 5.0623-16.684 7.7107-24.9904-4.2084-6.4917-3.8453-17.047-2.2656-24.3565 1.5717-7.2785 5.0899-15.1913 11.6198-19.286 0.7262-0.4541 1.48-0.862 2.242-1.2572 4.6112 5.7511 6.3426 12.1421 5.5446 19.4483-1.069 9.8151-6.5779 18.9924-14.2725 25.0888l-0.3192 0.2515c-0.6109 2.1738-1.3142 4.3398-2.0175 6.5069-0.9643 2.97-1.9291 5.9421-2.6577 8.9387 0.042-0.0169 0.0846-0.0332 0.1272-0.0495 0.079-0.0301 0.158-0.0605 0.2359-0.0954 0.8724-0.39 2.4332-2.8118 3.7334-4.8293 0.6671-1.0354 1.2659-1.9643 1.6676-2.4575 6.7734-8.3243 15.9762-13.2961 26.8781-13.0609 2.0503 0.0437 4.5075 0.121 6.4582 0.6952 0.9414 0.2762 1.1007 0.4243 1.6115 1.2413-0.3113 5.7702-7.9104 14.8896-12.2701 18.8028C74.7428 76.5049 63.5772 81.1461 52.2886 85c-0.4596-0.1021-0.7152-0.1589-1.233-0.2739l-3.9508-0.8776-2.0325-0.4515-1.8706-0.5663 0.1274-0.3327c-0.2329-0.9083-1.5755-1.1627-2.5168-1.3413l-0.0121-23e-4c-0.0861-0.0162-0.1685-0.0319-0.2464-0.0473-1.1025-0.2197-2.2174-0.4351-3.3396-0.652l-0.018-34e-4C24.908 78.078 11.7019 75.5269 3.5804 65.1545c-1.3877-1.7722-3.8286-5.2806-3.5445-7.5065 1.881-1.6054 7.4306-2.165 9.8389-2.2999 12.1841-0.6841 23.6893 5.7993 31.2604 14.9649 0.7535 0.9111 1.4391 2.0343 2.1285 3.1639 0.9709 1.5909 1.9498 3.1944 3.1372 4.2359l0.4707-0.874c-1.3203-10.3248-3.7219-19.5716-9.4144-28.3763-3.9926 1.1804-7.6956 1.5206-11.844 0.7613-2.6499-0.4855-6.9262-1.8183-8.5268-4.1002-0.4649-0.7323-3.1484-2.057-5.7713-3.3517-2.0339-1.0042-4.0314-1.9903-4.9293-2.668-3.7938-2.8642-5.67-6.668-6.3529-11.3107l-0.0161-0.3913c-0.1716-5.1727 1.0808-9.7916 4.7537-13.5969 3.8539-3.9929 8.9584-5.5421 14.3842-5.6341z" />
            <path fill="var(--color1, #eae9e8)" d="M19.1533 8.1709c1.4728-2.2246 3.1055-4.1086 5.3449-5.601 3.1047-2.0686 6.8037-3.1093 10.5086-2.2891 2.987 0.6614 5.4167 2.6704 7.0526 5.1768-5.1175 1.478-6.8627 3.4404-9.8301 7.8316-0.7803 2.1387-1.4488 4.3765-1.6379 6.6564 3.6005 3.1659 5.9141 6.7285 6.2336 11.6318 0.0383 0.5859 0.0818 0.6949-0.2389 1.1697l-1.3084-0.3861c-1.166 0.8497-1.458 2.2975-1.6754 3.6546-0.3877 2.4236-0.4448 5.0371-0.3969 7.4898-3.0041-0.8772-5.6488-1.1816-8.7754-1.0363-2.5729 0.6351-5.0006 1.3757-7.345 2.6544-0.8253-1.3002-8.6449-4.468-10.7005-6.0197-3.7939-2.8641-5.67-6.6679-6.3529-11.3106L0.0153 27.402c-0.1715-5.1728 1.081-9.7917 4.7541-13.597 3.8538-3.9929 8.9581-5.5422 14.3839-5.6341z" />
            <path fill="var(--color4, #db8778)" d="M19.1533 8.1709c1.4728-2.2246 3.1055-4.1086 5.3449-5.601 3.1047-2.0686 6.8037-3.1093 10.5086-2.2891 2.987 0.6614 5.4167 2.6704 7.0526 5.1768-5.1175 1.478-6.8627 3.4404-9.8301 7.8316-0.7803 2.1387-1.4488 4.3765-1.6379 6.6564l-3.5941-1.4466c-1.434 0.0382-4.2591-0.2491-5.4873 0.3693l-1.584 0.7685c-0.6107 0.554-1.324 1.3889-2.026 1.792l-1.3271 2.2864-0.9191 0.0565c-4.2722-0.0764-8.3059 0.3884-12.216 2.229-1.1053 0.5206-2.2653 1.447-3.4062 1.7925L0.0153 27.402c-0.1715-5.1728 1.081-9.7917 4.7541-13.597 3.8538-3.9929 8.9581-5.5422 14.3839-5.6341z" />
            <path d="M26.9985 18.499c0.6542-1.7487 1.2055-3.8989 2.5566-5.2329 1.2194-0.4919 1.4647-0.3307 2.6754 0.0231-0.7802 2.1387-1.4488 4.3764-1.6379 6.6564z" />
            <path d="M19.926 19.6368c-1.2913-0.8859-2.7764-1.7901-3.8215-2.9709-0.6777-0.7653-1.0328-1.5982-0.9853-2.6186l0.6793-0.3343c2.8598 0.6256 4.0824 2.9593 5.7115 5.1553z" />
            <path d="M15.653 23.7716c-0.5381-0.0664-1.1444-0.1142-1.6666-0.2678-0.8724-0.2567-1.0128-0.6172-1.3443-1.365 0.3722-0.5206 0.4611-0.6642 1.0519-0.9233 1.4281-0.626 2.8063-0.3089 4.2052 0.2133l-1.3271 2.2863z" />
            <path d="M22.7792 10.4906c0.4827 0.2082 0.9562 0.4565 1.2613 0.903 1.2238 1.7929 1.0188 5.3718 0.7966 7.4492l-1.7009-0.5038c-0.233-0.2547-0.4137-0.4573-0.5573-0.7753-1.0024-2.2174-0.5883-4.8663 0.2003-7.0731z" />
            <path fill="var(--color2, #ebb19f)" d="M15.6554 23.7717l0.919-0.0565c-1.1201 4.2268-1.724 8.5018 0.6211 12.4731 1.6738 2.8347 4.3891 4.743 7.2361 6.2808-2.5729 0.6351-5.0006 1.3757-7.345 2.6544-0.8253-1.3002-8.645-4.468-10.7005-6.0197-3.7939-2.8641-5.67-6.6679-6.3529-11.3106 1.1409-0.3455 2.3009-1.272 3.4062-1.7925 3.91-1.8406 7.9437-2.3054 12.216-2.229z" />
            <path fill="var(--color3, #97a898)" d="M55.2879 68.1913c0.1197-0.0481 0.2433-0.0911 0.363-0.1448 1.3204-0.5902 4.2164-5.8327 5.4011-7.2868 6.7734-8.3243 15.976-13.2962 26.878-13.061 2.0503 0.0438 4.5075 0.121 6.4581 0.6953 0.9415 0.2762 1.101 0.4242 1.6116 1.2412-0.3111 5.7702-7.9102 14.8896-12.2702 18.8029-8.9872 8.0668-20.1525 12.7079-31.4414 16.5618 5.8639-7.4081 12.725-14.6778 20.0648-20.6334 2.5529-2.0719 13.3352-8.6555 14.1171-10.0098-0.3471-0.2256-0.395-0.3693-0.8258-0.3068-9.7491 1.4148-28.5293 21.3972-34.3612 28.9522C52.0209 77.858 53.2894 73 55.2879 68.1913z" />
            <path fill="var(--color3, #97a898)" d="M43.2013 82.8306l0.1277-0.3327c-0.2553-0.9953-1.843-1.2054-2.7756-1.3909-13.1773-2.6265-28.1057-4.6275-36.9733-15.9525-1.3878-1.7722-3.8287-5.2807-3.5446-7.5065 1.8812-1.6054 7.4307-2.165 9.8388-2.2999 12.1845-0.6841 23.6896 5.7992 31.2607 14.9648 1.815 2.1944 3.2351 5.619 5.2655 7.3999l0.4707-0.874c0.2074 1.2294 0.2912 2.1968 0.1117 3.4452-1.464-0.468-3.7776-3.4671-5.1538-4.5539-7.7658-6.1419-21.3875-14.4948-31.6655-14.2003l-0.2657 0.3617c2.5601 1.9891 6.8862 2.7794 9.9398 3.836 9.2118 3.1882 19.4831 9.2333 25.3541 17.1839l-0.3151 0.3534c-0.5106-0.1158-1.2286-0.1822-1.6754-0.4342z" />
            <path fill="var(--color3, #97a898)" d="M69.0082 7.9571c4.6113 5.7511 6.3425 12.142 5.5447 19.4484-1.069 9.8151-6.5779 18.9922-14.2727 25.0887l-0.3191 0.2515c1.7791-8.7577 3.0995-17.9894 5.7083-26.5182 0.5704-1.8554 1.8389-5.2055 0.8975-6.9716l-0.6582 0.2626c-4.0169 6.3428-6.0513 25.0223-8.4965 33.3383-4.2084-6.4917-3.8455-17.047-2.2658-24.3565 1.5716-7.2785 5.09-15.1913 11.62-19.286 0.726-0.4541 1.4799-0.862 2.2418-1.2572z" />
            <path fill="var(--color2, #ebb19f)" d="M32.2292 13.2892c2.9674-4.3912 4.7126-6.3536 9.8301-7.8316 1.6834 3.5463 3.1593 7.0767 4.2523 10.8522 0.6183 2.1299 1.6993 10.0937 2.6207 11.2744-3.2709 0.6595-5.5407 2.4149-7.3597 5.1776-1.0124 1.539-1.805 3.2928-2.5374 4.9818-0.8101-1.4956-2.1213-3.3406-2.4492-4.9965 0.3207-0.4748 0.2772-0.5838 0.2389-1.1696-0.3195-4.9034-2.6331-8.466-6.2336-11.6319 0.1891-2.2799 0.8576-4.5177 1.6379-6.6564z" />
        </symbol>
        <symbol id="facebook" viewBox="0 0 24 24" fill="none">
            <path
                d="M13.5 21v-7.5h2.625l.375-3h-3v-1.875c0-.825.225-1.5 1.425-1.5h1.65V4.5a19.715 19.715 0 0 0-2.4-.15c-2.4 0-4.05 1.5-4.05 4.275V10.5H7.5v3h2.625V21h3.375Z"
                fill="currentColor"
            />
        </symbol>
    </defs>
</svg>